<svg width="24" height="25" viewBox="0 0 24 25" fill="none" xmlns="http://www.w3.org/2000/svg">
<path d="M21.97 19.3129C21.97 19.6729 21.89 20.0429 21.72 20.4029C21.55 20.7629 21.33 21.1029 21.04 21.4229C20.55 21.9629 20.01 22.3529 19.4 22.6029C18.8 22.8529 18.15 22.9829 17.45 22.9829C16.43 22.9829 15.34 22.7429 14.19 22.2529C13.04 21.7629 11.89 21.1029 10.75 20.2729C9.6 19.4329 8.51 18.5029 7.47 17.4729C6.44 16.4329 5.51 15.3429 4.68 14.2029C3.86 13.0629 3.2 11.9229 2.72 10.7929C2.24 9.65291 2 8.56291 2 7.52291C2 6.84291 2.12 6.19291 2.36 5.59291C2.6 4.98291 2.98 4.42291 3.51 3.92291C4.15 3.29291 4.85 2.98291 5.59 2.98291C5.87 2.98291 6.15 3.04291 6.4 3.16291C6.66 3.28291 6.89 3.46291 7.07 3.72291L9.39 6.99291C9.57 7.24291 9.7 7.47291 9.79 7.69291C9.88 7.90291 9.93 8.11291 9.93 8.30291C9.93 8.54291 9.86 8.78291 9.72 9.01291C9.59 9.24291 9.4 9.48291 9.16 9.72291L8.4 10.5129C8.29 10.6229 8.24 10.7529 8.24 10.9129C8.24 10.9929 8.25 11.0629 8.27 11.1429C8.3 11.2229 8.33 11.2829 8.35 11.3429C8.53 11.6729 8.84 12.1029 9.28 12.6229C9.73 13.1429 10.21 13.6729 10.73 14.2029C11.27 14.7329 11.79 15.2229 12.32 15.6729C12.84 16.1129 13.27 16.4129 13.61 16.5929C13.66 16.6129 13.72 16.6429 13.79 16.6729C13.87 16.7029 13.95 16.7129 14.04 16.7129C14.21 16.7129 14.34 16.6529 14.45 16.5429L15.21 15.7929C15.46 15.5429 15.7 15.3529 15.93 15.2329C16.16 15.0929 16.39 15.0229 16.64 15.0229C16.83 15.0229 17.03 15.0629 17.25 15.1529C17.47 15.2429 17.7 15.3729 17.95 15.5429L21.26 17.8929C21.52 18.0729 21.7 18.2829 21.81 18.5329C21.91 18.7829 21.97 19.0329 21.97 19.3129Z" fill="#0F1827"/>
</svg>
