<svg width="24" height="25" viewBox="0 0 24 25" fill="none" xmlns="http://www.w3.org/2000/svg">
<path d="M11.9998 8.98121C9.79577 8.98121 7.99714 10.7794 7.99714 12.9829C7.99714 15.1864 9.79577 16.9846 11.9998 16.9846C14.2038 16.9846 16.0024 15.1864 16.0024 12.9829C16.0024 10.7794 14.2038 8.98121 11.9998 8.98121ZM24.0046 12.9829C24.0046 11.3258 24.0197 9.68368 23.9266 8.02956C23.8335 6.10827 23.3951 4.40311 21.9898 2.99816C20.5815 1.59021 18.879 1.15492 16.9573 1.06186C15.2998 0.968793 13.6573 0.983803 12.0028 0.983803C10.3453 0.983803 8.70278 0.968793 7.04828 1.06186C5.12654 1.15492 3.42099 1.59321 2.01572 2.99816C0.607443 4.40612 0.172048 6.10827 0.0789638 8.02956C-0.0141205 9.68668 0.000893142 11.3288 0.000893142 12.9829C0.000893142 14.637 -0.0141205 16.2821 0.0789638 17.9363C0.172048 19.8576 0.610446 21.5627 2.01572 22.9677C3.424 24.3756 5.12654 24.8109 7.04828 24.904C8.70578 24.997 10.3483 24.982 12.0028 24.982C13.6603 24.982 15.3028 24.997 16.9573 24.904C18.879 24.8109 20.5845 24.3726 21.9898 22.9677C23.3981 21.5597 23.8335 19.8576 23.9266 17.9363C24.0227 16.2821 24.0046 14.64 24.0046 12.9829ZM11.9998 19.1401C8.59168 19.1401 5.84119 16.3902 5.84119 12.9829C5.84119 9.57561 8.59168 6.82575 11.9998 6.82575C15.4079 6.82575 18.1583 9.57561 18.1583 12.9829C18.1583 16.3902 15.4079 19.1401 11.9998 19.1401ZM18.4106 8.01155C17.6149 8.01155 16.9723 7.36912 16.9723 6.57358C16.9723 5.77804 17.6149 5.13561 18.4106 5.13561C19.2063 5.13561 19.8489 5.77804 19.8489 6.57358C19.8491 6.76248 19.8121 6.94958 19.7399 7.12415C19.6677 7.29872 19.5617 7.45733 19.4281 7.59091C19.2945 7.72448 19.1359 7.83039 18.9613 7.90258C18.7867 7.97476 18.5995 8.01179 18.4106 8.01155Z" fill="#0F1827"/>
</svg>
