<svg width="20" height="21" viewBox="0 0 20 21" fill="none" xmlns="http://www.w3.org/2000/svg">
<path d="M9.99976 20.9827C15.5226 20.9827 19.9998 16.5055 19.9998 10.9827C19.9998 5.45982 15.5226 0.982666 9.99976 0.982666C4.47691 0.982666 -0.000244141 5.45982 -0.000244141 10.9827C-0.000244141 12.3616 0.278826 13.6753 0.783576 14.8704C1.06254 15.5308 1.20202 15.8611 1.21929 16.1107C1.23656 16.3603 1.1631 16.6348 1.01618 17.1839L-0.000244141 20.9827L3.79853 19.9663C4.34764 19.8194 4.6222 19.7459 4.87178 19.7632C5.12137 19.7804 5.45161 19.9199 6.11211 20.1989C7.30721 20.7036 8.62086 20.9827 9.99976 20.9827Z" fill="#0F1827"/>
</svg>
