<svg width="799" height="391" viewBox="0 0 799 391" fill="none" xmlns="http://www.w3.org/2000/svg">
<path d="M2.76478 306.728C2.74107 306.176 2.27454 305.748 1.72276 305.772C1.17099 305.796 0.74291 306.262 0.766623 306.814L2.76478 306.728ZM75.3672 389.624L75.4497 390.62L75.3672 389.624ZM709.903 2.06115L709.946 3.06022L709.903 2.06115ZM790.675 47.9859C791.082 48.3593 791.714 48.3321 792.088 47.9252L798.172 41.2938C798.546 40.8869 798.519 40.2543 798.112 39.8809C797.705 39.5075 797.072 39.5347 796.699 39.9416L791.29 45.8362L785.396 40.4274C784.989 40.054 784.356 40.0812 783.983 40.4881C783.609 40.8951 783.636 41.5277 784.043 41.9011L790.675 47.9859ZM1.00109 310.695C1.04404 311.245 1.52521 311.657 2.07582 311.614C2.62644 311.571 3.03798 311.09 2.99504 310.539L1.00109 310.695ZM3.85732 318.115C3.77524 317.569 3.26595 317.193 2.7198 317.275C2.17365 317.357 1.79745 317.867 1.87954 318.413L3.85732 318.115ZM3.31323 326.043C3.43518 326.581 3.97071 326.919 4.50936 326.797C5.04801 326.675 5.38582 326.14 5.26386 325.601L3.31323 326.043ZM7.22314 332.957C7.0608 332.43 6.50127 332.133 5.97338 332.296C5.44549 332.458 5.14915 333.017 5.31149 333.545L7.22314 332.957ZM7.88419 340.883C8.08726 341.396 8.66824 341.648 9.18183 341.445C9.69543 341.242 9.94716 340.661 9.74408 340.147L7.88419 340.883ZM12.8258 347.11C12.5819 346.614 11.9825 346.41 11.487 346.654C10.9915 346.898 10.7875 347.497 11.0314 347.993L12.8258 347.11ZM14.7536 354.821C15.0381 355.295 15.6525 355.448 16.1259 355.163C16.5992 354.878 16.7522 354.264 16.4676 353.791L14.7536 354.821ZM20.6659 360.132C20.3409 359.685 19.7155 359.587 19.2689 359.912C18.8223 360.236 18.7237 360.862 19.0486 361.308L20.6659 360.132ZM23.9111 367.387C24.2757 367.802 24.9076 367.843 25.3224 367.478C25.7372 367.113 25.7778 366.482 25.4132 366.067L23.9111 367.387ZM30.6971 371.521C30.2937 371.144 29.6609 371.165 29.2836 371.569C28.9064 371.972 28.9276 372.605 29.331 372.982L30.6971 371.521ZM35.2914 378.006C35.7319 378.339 36.3591 378.252 36.6922 377.812C37.0254 377.371 36.9384 376.744 36.4979 376.411L35.2914 378.006ZM42.7851 380.64C42.3101 380.358 41.6966 380.515 41.415 380.99C41.1333 381.465 41.29 382.079 41.765 382.36L42.7851 380.64ZM48.7088 385.934C49.2144 386.156 49.8044 385.926 50.0265 385.421C50.2486 384.915 50.0187 384.325 49.513 384.103L48.7088 385.934ZM56.6178 386.688C56.0874 386.534 55.5326 386.84 55.3787 387.37C55.2247 387.9 55.5299 388.455 56.0603 388.609L56.6178 386.688ZM63.7127 390.263C64.2594 390.341 64.7659 389.961 64.8439 389.414C64.9219 388.867 64.5419 388.361 63.9951 388.283L63.7127 390.263ZM71.5168 388.795C70.9645 388.799 70.5198 389.25 70.5235 389.802C70.5272 390.354 70.9779 390.799 71.5301 390.795L71.5168 388.795ZM79.3334 390.236C79.8821 390.173 80.2758 389.677 80.2127 389.128C80.1497 388.579 79.6538 388.186 79.1051 388.249L79.3334 390.236ZM86.9504 387.109C86.4063 387.204 86.0421 387.722 86.137 388.266C86.2319 388.81 86.7499 389.174 87.294 389.079L86.9504 387.109ZM95.1703 387.497C95.709 387.375 96.0468 386.839 95.9249 386.301C95.803 385.762 95.2675 385.424 94.7288 385.546L95.1703 387.497ZM102.413 383.628C101.88 383.773 101.566 384.323 101.711 384.856C101.855 385.389 102.405 385.703 102.938 385.558L102.413 383.628ZM110.694 383.288C111.221 383.123 111.514 382.562 111.349 382.035C111.184 381.508 110.623 381.214 110.096 381.379L110.694 383.288ZM117.567 378.905C117.045 379.087 116.77 379.658 116.952 380.179C117.133 380.7 117.704 380.976 118.225 380.794L117.567 378.905ZM125.911 377.983C126.427 377.786 126.686 377.208 126.488 376.692C126.291 376.176 125.713 375.918 125.197 376.115L125.911 377.983ZM132.443 373.24C131.933 373.45 131.689 374.035 131.899 374.545C132.109 375.056 132.693 375.3 133.204 375.09L132.443 373.24ZM140.624 371.939C141.13 371.717 141.361 371.127 141.139 370.621C140.918 370.116 140.328 369.885 139.822 370.107L140.624 371.939ZM147.093 366.832C146.592 367.063 146.373 367.658 146.605 368.159C146.837 368.66 147.431 368.879 147.932 368.647L147.093 366.832ZM155.107 365.247C155.604 365.006 155.811 364.408 155.57 363.911C155.329 363.414 154.731 363.206 154.234 363.447L155.107 365.247ZM161.48 359.857C160.987 360.106 160.79 360.708 161.039 361.201C161.288 361.693 161.89 361.891 162.383 361.642L161.48 359.857ZM169.418 358.015C169.907 357.758 170.095 357.154 169.838 356.665C169.582 356.176 168.977 355.988 168.488 356.244L169.418 358.015ZM175.505 352.499C175.02 352.762 174.84 353.369 175.103 353.855C175.367 354.34 175.974 354.52 176.459 354.257L175.505 352.499ZM183.581 350.333C184.063 350.063 184.235 349.454 183.966 348.972C183.696 348.49 183.087 348.317 182.605 348.587L183.581 350.333ZM189.438 344.714C188.959 344.989 188.793 345.6 189.068 346.079C189.343 346.558 189.955 346.723 190.434 346.448L189.438 344.714ZM197.342 342.431C197.818 342.151 197.977 341.538 197.697 341.062C197.417 340.586 196.804 340.427 196.328 340.707L197.342 342.431ZM203.284 336.565C202.811 336.85 202.658 337.465 202.943 337.938C203.228 338.411 203.843 338.564 204.316 338.279L203.284 336.565ZM211.053 334.18C211.523 333.891 211.67 333.276 211.381 332.805C211.092 332.334 210.476 332.187 210.006 332.476L211.053 334.18ZM216.776 328.277C216.308 328.57 216.166 329.187 216.459 329.655C216.752 330.123 217.369 330.265 217.838 329.972L216.776 328.277ZM224.674 325.653C225.14 325.356 225.277 324.738 224.98 324.272C224.684 323.807 224.065 323.67 223.6 323.966L224.674 325.653ZM230.255 319.691C229.791 319.991 229.659 320.611 229.959 321.074C230.259 321.538 230.878 321.67 231.342 321.37L230.255 319.691ZM238.016 317.017C238.477 316.714 238.606 316.094 238.302 315.632C237.999 315.171 237.379 315.042 236.918 315.346L238.016 317.017ZM243.623 310.909C243.163 311.215 243.039 311.836 243.345 312.296C243.651 312.756 244.272 312.88 244.731 312.574L243.623 310.909ZM251.357 308.131C251.815 307.822 251.936 307.2 251.627 306.743C251.318 306.285 250.697 306.164 250.239 306.473L251.357 308.131ZM256.807 302.014C256.351 302.326 256.234 302.948 256.545 303.404C256.857 303.86 257.479 303.977 257.935 303.666L256.807 302.014ZM264.546 299.127C265.001 298.813 265.115 298.19 264.801 297.736C264.487 297.281 263.865 297.167 263.41 297.481L264.546 299.127ZM270 292.908C269.547 293.224 269.436 293.847 269.752 294.3C270.068 294.753 270.691 294.864 271.144 294.548L270 292.908ZM277.642 289.994C278.094 289.676 278.202 289.053 277.884 288.601C277.566 288.149 276.942 288.041 276.49 288.359L277.642 289.994ZM283.007 283.75C282.557 284.069 282.451 284.694 282.771 285.144C283.091 285.594 283.715 285.7 284.166 285.38L283.007 283.75ZM290.713 280.708C291.162 280.387 291.266 279.762 290.944 279.313C290.622 278.864 289.998 278.761 289.549 279.082L290.713 280.708ZM296.001 274.442C295.554 274.765 295.453 275.39 295.776 275.838C296.099 276.285 296.724 276.386 297.172 276.063L296.001 274.442ZM303.625 271.387C304.072 271.063 304.171 270.437 303.846 269.991C303.521 269.544 302.896 269.445 302.449 269.77L303.625 271.387ZM308.915 265.052C308.47 265.378 308.373 266.004 308.699 266.45C309.025 266.895 309.651 266.992 310.097 266.666L308.915 265.052ZM316.553 261.924C316.998 261.597 317.093 260.971 316.766 260.526C316.438 260.082 315.812 259.987 315.367 260.314L316.553 261.924ZM321.762 255.59C321.319 255.919 321.225 256.545 321.554 256.989C321.883 257.433 322.509 257.526 322.953 257.197L321.762 255.59ZM329.365 252.434C329.808 252.104 329.899 251.478 329.57 251.035C329.24 250.592 328.613 250.5 328.17 250.83L329.365 252.434ZM334.59 246.037C334.147 246.368 334.057 246.995 334.388 247.437C334.719 247.879 335.346 247.969 335.788 247.639L334.59 246.037ZM342.169 242.852C342.611 242.52 342.699 241.893 342.367 241.452C342.036 241.01 341.409 240.921 340.967 241.253L342.169 242.852ZM347.334 236.457C346.893 236.79 346.805 237.417 347.138 237.857C347.471 238.298 348.098 238.386 348.539 238.053L347.334 236.457ZM354.915 233.231C355.355 232.897 355.441 232.27 355.108 231.83C354.774 231.39 354.147 231.303 353.707 231.637L354.915 233.231ZM360.08 226.799C359.64 227.133 359.555 227.761 359.889 228.2C360.223 228.64 360.851 228.725 361.29 228.391L360.08 226.799ZM367.634 223.56C368.073 223.225 368.158 222.598 367.823 222.159C367.488 221.719 366.86 221.635 366.421 221.97L367.634 223.56ZM372.764 217.126C372.326 217.461 372.242 218.089 372.578 218.527C372.913 218.966 373.541 219.05 373.979 218.714L372.764 217.126ZM380.325 213.856C380.763 213.52 380.846 212.892 380.51 212.454C380.174 212.016 379.546 211.933 379.108 212.269L380.325 213.856ZM385.445 207.406C385.007 207.742 384.925 208.37 385.261 208.808C385.598 209.246 386.226 209.328 386.664 208.992L385.445 207.406ZM392.995 204.124C393.433 203.787 393.514 203.16 393.178 202.722C392.841 202.284 392.213 202.202 391.775 202.539L392.995 204.124ZM398.101 197.668C397.663 198.006 397.582 198.633 397.919 199.071C398.256 199.508 398.884 199.59 399.322 199.253L398.101 197.668ZM405.642 194.38C406.079 194.043 406.16 193.415 405.823 192.977C405.485 192.54 404.858 192.459 404.42 192.796L405.642 194.38ZM410.75 187.912C410.313 188.249 410.232 188.877 410.57 189.314C410.907 189.751 411.535 189.832 411.972 189.495L410.75 187.912ZM418.297 184.611C418.734 184.274 418.814 183.646 418.477 183.208C418.139 182.771 417.511 182.691 417.074 183.028L418.297 184.611ZM423.387 178.152C422.95 178.49 422.87 179.118 423.207 179.555C423.545 179.992 424.173 180.072 424.61 179.735L423.387 178.152ZM430.922 174.859C431.359 174.522 431.44 173.894 431.102 173.456C430.765 173.019 430.137 172.939 429.7 173.276L430.922 174.859ZM436.039 168.382C435.601 168.719 435.521 169.347 435.858 169.785C436.196 170.222 436.823 170.303 437.261 169.965L436.039 168.382ZM443.583 165.087C444.021 164.749 444.102 164.121 443.764 163.684C443.427 163.247 442.799 163.166 442.362 163.503L443.583 165.087ZM448.668 158.642C448.23 158.979 448.149 159.607 448.486 160.045C448.823 160.482 449.451 160.564 449.888 160.226L448.668 158.642ZM456.226 155.348C456.664 155.011 456.746 154.383 456.409 153.945C456.073 153.508 455.445 153.426 455.007 153.762L456.226 155.348ZM461.357 148.883C460.918 149.219 460.836 149.847 461.172 150.285C461.509 150.723 462.136 150.806 462.574 150.47L461.357 148.883ZM468.9 145.619C469.338 145.283 469.421 144.656 469.085 144.217C468.75 143.779 468.122 143.695 467.683 144.031L468.9 145.619ZM473.995 139.203C473.556 139.538 473.472 140.166 473.807 140.605C474.143 141.044 474.77 141.128 475.209 140.792L473.995 139.203ZM481.599 135.918C482.038 135.584 482.123 134.956 481.789 134.517C481.454 134.077 480.827 133.993 480.387 134.327L481.599 135.918ZM486.751 129.489C486.311 129.823 486.225 130.45 486.559 130.89C486.893 131.33 487.52 131.416 487.96 131.082L486.751 129.489ZM494.291 126.287C494.731 125.954 494.818 125.327 494.485 124.886C494.152 124.445 493.525 124.358 493.085 124.691L494.291 126.287ZM499.475 119.871C499.034 120.203 498.945 120.83 499.277 121.271C499.609 121.712 500.236 121.801 500.678 121.469L499.475 119.871ZM507.09 116.654C507.532 116.323 507.622 115.696 507.291 115.254C506.96 114.812 506.334 114.722 505.891 115.053L507.09 116.654ZM512.271 110.287C511.828 110.617 511.737 111.244 512.066 111.687C512.396 112.13 513.023 112.221 513.466 111.891L512.271 110.287ZM519.837 107.159C520.281 106.831 520.374 106.204 520.045 105.761C519.717 105.317 519.09 105.223 518.647 105.552L519.837 107.159ZM525.133 100.765C524.688 101.092 524.592 101.718 524.92 102.163C525.247 102.608 525.873 102.703 526.318 102.376L525.133 100.765ZM532.753 97.6591C533.199 97.3334 533.296 96.7078 532.97 96.2617C532.645 95.8157 532.019 95.7182 531.573 96.0439L532.753 97.6591ZM537.966 91.3933C537.519 91.7173 537.419 92.3425 537.743 92.7898C538.067 93.237 538.692 93.3369 539.14 93.0128L537.966 91.3933ZM545.677 88.2966C546.126 87.9744 546.228 87.3496 545.906 86.901C545.584 86.4524 544.959 86.35 544.511 86.6721L545.677 88.2966ZM551.027 82.0144C550.577 82.3345 550.472 82.9588 550.792 83.4089C551.112 83.8589 551.736 83.9643 552.186 83.6442L551.027 82.0144ZM558.637 79.0794C559.089 78.7615 559.197 78.1377 558.879 77.6861C558.561 77.2344 557.937 77.126 557.486 77.4439L558.637 79.0794ZM564.074 72.8332C563.62 73.1487 563.508 73.7719 563.824 74.2252C564.139 74.6786 564.762 74.7904 565.216 74.475L564.074 72.8332ZM571.812 69.9147C572.267 69.602 572.382 68.9795 572.07 68.5243C571.757 68.069 571.135 67.9535 570.679 68.2662L571.812 69.9147ZM577.215 63.8076C576.758 64.1174 576.638 64.7391 576.948 65.1964C577.257 65.6536 577.879 65.7732 578.336 65.4635L577.215 63.8076ZM584.993 60.9889C585.452 60.6825 585.576 60.0616 585.27 59.6021C584.963 59.1426 584.342 59.0186 583.883 59.325L584.993 60.9889ZM590.589 54.8904C590.127 55.1931 589.998 55.813 590.301 56.2749C590.604 56.7368 591.223 56.8658 591.685 56.563L590.589 54.8904ZM598.291 52.2731C598.755 51.9743 598.89 51.3555 598.591 50.8911C598.292 50.4266 597.673 50.2922 597.209 50.591L598.291 52.2731ZM604.016 46.2584C603.548 46.5527 603.408 47.1701 603.702 47.6375C603.996 48.1048 604.614 48.2452 605.081 47.9509L604.016 46.2584ZM611.875 43.7238C612.346 43.4346 612.492 42.8188 612.203 42.3482C611.914 41.8777 611.298 41.7307 610.828 42.0199L611.875 43.7238ZM617.533 37.9517C617.059 38.2353 616.905 38.8494 617.189 39.3233C617.472 39.7972 618.086 39.9514 618.56 39.6677L617.533 37.9517ZM625.567 35.5371C626.045 35.2599 626.208 34.648 625.93 34.1703C625.653 33.6926 625.041 33.53 624.564 33.8071L625.567 35.5371ZM631.477 29.8641C630.995 30.134 630.823 30.7435 631.093 31.2253C631.363 31.7071 631.973 31.8789 632.455 31.609L631.477 29.8641ZM639.416 27.7853C639.902 27.5236 640.084 26.9172 639.823 26.4309C639.561 25.9445 638.955 25.7623 638.468 26.024L639.416 27.7853ZM645.625 22.263C645.133 22.5149 644.939 23.1176 645.191 23.6091C645.443 24.1005 646.046 24.2947 646.537 24.0427L645.625 22.263ZM653.497 20.5685C653.994 20.3274 654.201 19.7292 653.96 19.2323C653.719 18.7354 653.121 18.528 652.624 18.7691L653.497 20.5685ZM660.054 15.2841C659.551 15.5117 659.327 16.1041 659.555 16.6073C659.783 17.1106 660.375 17.334 660.878 17.1064L660.054 15.2841ZM668.041 13.9935C668.551 13.7813 668.793 13.196 668.581 12.6861C668.368 12.1762 667.783 11.9348 667.273 12.147L668.041 13.9935ZM674.868 9.14845C674.35 9.34125 674.087 9.91709 674.28 10.4346C674.473 10.9522 675.048 11.2154 675.566 11.0226L674.868 9.14845ZM682.929 8.45732C683.454 8.28755 683.743 7.72389 683.573 7.19834C683.403 6.6728 682.84 6.38439 682.314 6.55416L682.929 8.45732ZM690.17 4.25053C689.636 4.39031 689.316 4.93676 689.456 5.47107C689.596 6.00537 690.142 6.3252 690.677 6.18542L690.17 4.25053ZM698.236 4.47168C698.778 4.36885 699.135 3.84561 699.032 3.30298C698.929 2.76035 698.406 2.40383 697.863 2.50666L698.236 4.47168ZM705.983 1.3335C705.433 1.38627 705.03 1.87471 705.083 2.42447C705.135 2.97423 705.624 3.37712 706.174 3.32435L705.983 1.3335ZM713.729 2.92247C714.281 2.90609 714.715 2.44529 714.699 1.89325C714.682 1.34121 714.222 0.90697 713.67 0.923349L713.729 2.92247ZM721.254 0.808965C720.702 0.808766 720.254 1.25632 720.254 1.8086C720.253 2.36089 720.701 2.80877 721.253 2.80897L721.254 0.808965ZM728.771 2.94256C729.323 2.96261 729.787 2.53144 729.807 1.97952C729.827 1.4276 729.396 0.963925 728.844 0.943881L728.771 2.94256ZM736.441 1.38087C735.891 1.33669 735.409 1.74716 735.364 2.29767C735.32 2.84819 735.731 3.33028 736.281 3.37446L736.441 1.38087ZM743.74 4.16902C744.287 4.24291 744.791 3.85912 744.865 3.3118C744.938 2.76448 744.555 2.26089 744.007 2.187L743.74 4.16902ZM751.525 3.45377C750.984 3.34275 750.455 3.69132 750.344 4.23234C750.233 4.77335 750.582 5.30192 751.123 5.41294L751.525 3.45377ZM758.37 7.21934C758.899 7.37724 759.456 7.07622 759.614 6.547C759.772 6.01777 759.471 5.46073 758.942 5.30283L758.37 7.21934ZM766.151 7.88778C765.643 7.67091 765.055 7.90684 764.838 8.41476C764.621 8.92268 764.857 9.51025 765.365 9.72712L766.151 7.88778ZM771.957 13.1097C772.428 13.3988 773.044 13.2516 773.333 12.781C773.622 12.3104 773.475 11.6946 773.004 11.4056L771.957 13.1097ZM779.203 16.0172C778.793 15.6473 778.16 15.6799 777.79 16.0899C777.42 16.5 777.453 17.1324 777.863 17.5023L779.203 16.0172ZM782.776 22.9481C783.101 23.3947 783.726 23.4935 784.173 23.1686C784.62 22.8438 784.718 22.2183 784.394 21.7717L782.776 22.9481ZM788.273 28.4801C788.047 27.9764 787.455 27.7516 786.951 27.9781C786.447 28.2046 786.223 28.7965 786.449 29.3002L788.273 28.4801ZM788.838 36.2744C788.971 36.8104 789.513 37.1369 790.049 37.0038C790.585 36.8706 790.912 36.3282 790.779 35.7922L788.838 36.2744ZM792.075 43.3701C792.019 42.8207 791.529 42.4206 790.979 42.4764C790.43 42.5323 790.03 43.023 790.085 43.5724L792.075 43.3701ZM0.766623 306.814C0.822636 308.117 0.900982 309.411 1.00109 310.695L2.99504 310.539C2.89674 309.279 2.81979 308.008 2.76478 306.728L0.766623 306.814ZM1.87954 318.413C2.26916 321.005 2.74877 323.55 3.31323 326.043L5.26386 325.601C4.71025 323.156 4.23968 320.659 3.85732 318.115L1.87954 318.413ZM5.31149 333.545C6.08294 336.054 6.94251 338.501 7.88419 340.883L9.74408 340.147C8.82164 337.814 7.97932 335.416 7.22314 332.957L5.31149 333.545ZM11.0314 347.993C12.1906 350.348 13.4336 352.626 14.7536 354.821L16.4676 353.791C15.1768 351.644 13.9605 349.415 12.8258 347.11L11.0314 347.993ZM19.0486 361.308C20.5949 363.434 22.2184 365.462 23.9111 367.387L25.4132 366.067C23.7616 364.188 22.1765 362.208 20.6659 360.132L19.0486 361.308ZM29.331 372.982C31.2533 374.78 33.2433 376.457 35.2914 378.006L36.4979 376.411C34.5065 374.905 32.5697 373.273 30.6971 371.521L29.331 372.982ZM41.765 382.36C44.0296 383.703 46.3479 384.897 48.7088 385.934L49.513 384.103C47.2283 383.099 44.9821 381.943 42.7851 380.64L41.765 382.36ZM56.0603 388.609C58.5816 389.341 61.1366 389.895 63.7127 390.263L63.9951 388.283C61.5144 387.929 59.0514 387.395 56.6178 386.688L56.0603 388.609ZM71.5301 390.795C72.8352 390.787 74.1422 390.729 75.4497 390.62L75.2846 388.627C74.028 388.731 72.7715 388.787 71.5168 388.795L71.5301 390.795ZM75.4497 390.62C76.7333 390.514 78.028 390.386 79.3334 390.236L79.1051 388.249C77.8201 388.396 76.5466 388.523 75.2846 388.627L75.4497 390.62ZM87.294 389.079C89.8814 388.628 92.5073 388.1 95.1703 387.497L94.7288 385.546C92.0964 386.142 89.5032 386.664 86.9504 387.109L87.294 389.079ZM102.938 385.558C105.492 384.864 108.078 384.106 110.694 383.288L110.096 381.379C107.503 382.19 104.942 382.941 102.413 383.628L102.938 385.558ZM118.225 380.794C120.761 379.91 123.323 378.972 125.911 377.983L125.197 376.115C122.627 377.097 120.083 378.028 117.567 378.905L118.225 380.794ZM133.204 375.09C135.656 374.082 138.13 373.031 140.624 371.939L139.822 370.107C137.341 371.193 134.881 372.238 132.443 373.24L133.204 375.09ZM147.932 368.647C150.307 367.548 152.698 366.415 155.107 365.247L154.234 363.447C151.836 364.61 149.455 365.739 147.093 366.832L147.932 368.647ZM162.383 361.642C164.713 360.463 167.058 359.253 169.418 358.015L168.488 356.244C166.137 357.478 163.801 358.683 161.48 359.857L162.383 361.642ZM176.459 354.257C178.82 352.976 181.194 351.668 183.581 350.333L182.605 348.587C180.225 349.918 177.858 351.222 175.505 352.499L176.459 354.257ZM190.434 346.448C192.725 345.132 195.028 343.793 197.342 342.431L196.328 340.707C194.02 342.066 191.723 343.402 189.438 344.714L190.434 346.448ZM204.316 338.279C206.552 336.932 208.798 335.566 211.053 334.18L210.006 332.476C207.756 333.859 205.515 335.222 203.284 336.565L204.316 338.279ZM217.838 329.972C220.108 328.55 222.387 327.11 224.674 325.653L223.6 323.966C221.317 325.421 219.042 326.858 216.776 328.277L217.838 329.972ZM231.342 321.37C233.559 319.935 235.784 318.483 238.016 317.017L236.918 315.346C234.69 316.81 232.469 318.258 230.255 319.691L231.342 321.37ZM244.731 312.574C246.934 311.106 249.143 309.625 251.357 308.131L250.239 306.473C248.027 307.965 245.822 309.444 243.623 310.909L244.731 312.574ZM257.935 303.666C260.133 302.165 262.337 300.652 264.546 299.127L263.41 297.481C261.204 299.004 259.003 300.515 256.807 302.014L257.935 303.666ZM271.144 294.548C273.306 293.041 275.472 291.523 277.642 289.994L276.49 288.359C274.323 289.886 272.159 291.402 270 292.908L271.144 294.548ZM284.166 285.38C286.344 283.832 288.527 282.275 290.713 280.708L289.549 279.082C287.364 280.647 285.184 282.203 283.007 283.75L284.166 285.38ZM297.172 276.063C299.32 274.513 301.471 272.954 303.625 271.387L302.449 269.77C300.297 271.335 298.147 272.892 296.001 274.442L297.172 276.063ZM310.097 266.666C312.246 265.092 314.399 263.512 316.553 261.924L315.367 260.314C313.214 261.9 311.063 263.48 308.915 265.052L310.097 266.666ZM322.953 257.197C325.088 255.615 327.226 254.027 329.365 252.434L328.17 250.83C326.032 252.422 323.896 254.009 321.762 255.59L322.953 257.197ZM335.788 247.639C337.914 246.048 340.041 244.452 342.169 242.852L340.967 241.253C338.84 242.852 336.714 244.447 334.59 246.037L335.788 247.639ZM348.539 238.053C350.663 236.449 352.788 234.842 354.915 233.231L353.707 231.637C351.582 233.247 349.457 234.854 347.334 236.457L348.539 238.053ZM361.29 228.391C363.404 226.784 365.519 225.173 367.634 223.56L366.421 221.97C364.307 223.582 362.193 225.192 360.08 226.799L361.29 228.391ZM373.979 218.714C376.095 217.097 378.21 215.477 380.325 213.856L379.108 212.269C376.994 213.889 374.879 215.509 372.764 217.126L373.979 218.714ZM386.664 208.992C388.775 207.37 390.885 205.748 392.995 204.124L391.775 202.539C389.666 204.162 387.556 205.784 385.445 207.406L386.664 208.992ZM399.322 199.253C401.429 197.628 403.536 196.004 405.642 194.38L404.42 192.796C402.315 194.42 400.208 196.044 398.101 197.668L399.322 199.253ZM411.972 189.495C414.082 187.866 416.19 186.238 418.297 184.611L417.074 183.028C414.968 184.655 412.86 186.283 410.75 187.912L411.972 189.495ZM424.61 179.735C426.716 178.108 428.82 176.482 430.922 174.859L429.7 173.276C427.598 174.9 425.494 176.525 423.387 178.152L424.61 179.735ZM437.261 169.965C439.371 168.336 441.479 166.71 443.583 165.087L442.362 163.503C440.257 165.126 438.149 166.753 436.039 168.382L437.261 169.965ZM449.888 160.226C452.004 158.596 454.117 156.97 456.226 155.348L455.007 153.762C452.897 155.385 450.784 157.012 448.668 158.642L449.888 160.226ZM462.574 150.47C464.687 148.848 466.795 147.231 468.9 145.619L467.683 144.031C465.578 145.644 463.469 147.261 461.357 148.883L462.574 150.47ZM475.209 140.792C477.344 139.162 479.474 137.537 481.599 135.918L480.387 134.327C478.261 135.946 476.13 137.572 473.995 139.203L475.209 140.792ZM487.96 131.082C490.075 129.477 492.186 127.878 494.291 126.287L493.085 124.691C490.979 126.283 488.867 127.883 486.751 129.489L487.96 131.082ZM500.678 121.469C502.821 119.855 504.959 118.25 507.09 116.654L505.891 115.053C503.759 116.65 501.62 118.256 499.475 119.871L500.678 121.469ZM513.466 111.891C515.596 110.304 517.72 108.727 519.837 107.159L518.647 105.552C516.528 107.121 514.403 108.699 512.271 110.287L513.466 111.891ZM526.318 102.376C528.47 100.792 530.616 99.2198 532.753 97.6591L531.573 96.0439C529.434 97.606 527.287 99.1798 525.133 100.765L526.318 102.376ZM539.14 93.0128C541.328 91.4274 543.507 89.8551 545.677 88.2966L544.511 86.6721C542.338 88.2323 540.157 89.8062 537.966 91.3933L539.14 93.0128ZM552.186 83.6442C554.346 82.1077 556.497 80.5859 558.637 79.0794L557.486 77.4439C555.343 78.9524 553.19 80.4761 551.027 82.0144L552.186 83.6442ZM565.216 74.475C567.426 72.9372 569.625 71.4169 571.812 69.9147L570.679 68.2662C568.489 69.7707 566.287 71.2933 564.074 72.8332L565.216 74.475ZM578.336 65.4635C580.568 63.9515 582.787 62.4597 584.993 60.9889L583.883 59.325C581.673 60.7986 579.451 62.2931 577.215 63.8076L578.336 65.4635ZM591.685 56.563C593.902 55.1101 596.104 53.6798 598.291 52.2731L597.209 50.591C595.017 52.001 592.81 53.4344 590.589 54.8904L591.685 56.563ZM605.081 47.9509C607.363 46.5141 609.628 45.1047 611.875 43.7238L610.828 42.0199C608.575 43.4047 606.304 44.8179 604.016 46.2584L605.081 47.9509ZM618.56 39.6677C620.917 38.2568 623.253 36.8795 625.567 35.5371L624.564 33.8071C622.241 35.1543 619.898 36.5362 617.533 37.9517L618.56 39.6677ZM632.455 31.609C634.8 30.2952 637.12 29.0202 639.416 27.7853L638.468 26.024C636.162 27.2646 633.832 28.5451 631.477 29.8641L632.455 31.609ZM646.537 24.0427C648.886 22.8384 651.206 21.6798 653.497 20.5685L652.624 18.7691C650.319 19.8872 647.986 21.0524 645.625 22.263L646.537 24.0427ZM660.878 17.1064C663.303 16.0099 665.691 14.9716 668.041 13.9935L667.273 12.147C664.903 13.1333 662.496 14.1797 660.054 15.2841L660.878 17.1064ZM675.566 11.0226C678.068 10.0904 680.523 9.23443 682.929 8.45732L682.314 6.55416C679.878 7.34095 677.396 8.20672 674.868 9.14845L675.566 11.0226ZM690.677 6.18542C693.262 5.50895 695.783 4.93651 698.236 4.47168L697.863 2.50666C695.362 2.98071 692.797 3.5635 690.17 4.25053L690.677 6.18542ZM706.174 3.32435C707.453 3.20154 708.711 3.11331 709.946 3.06022L709.86 1.06207C708.588 1.11673 707.295 1.20749 705.983 1.3335L706.174 3.32435ZM709.946 3.06022C711.224 3.00529 712.485 2.95938 713.729 2.92247L713.67 0.923349C712.417 0.960526 711.147 1.00677 709.86 1.06207L709.946 3.06022ZM721.253 2.80897C723.84 2.8099 726.346 2.85448 728.771 2.94256L728.844 0.943881C726.393 0.854871 723.863 0.809905 721.254 0.808965L721.253 2.80897ZM736.281 3.37446C738.871 3.5823 741.356 3.84725 743.74 4.16902L744.007 2.187C741.585 1.86005 739.064 1.59138 736.441 1.38087L736.281 3.37446ZM751.123 5.41294C753.676 5.93695 756.091 6.53931 758.37 7.21934L758.942 5.30283C756.602 4.60473 754.131 3.9885 751.525 3.45377L751.123 5.41294ZM765.365 9.72712C767.749 10.745 769.944 11.873 771.957 13.1097L773.004 11.4056C770.9 10.1134 768.617 8.9411 766.151 7.88778L765.365 9.72712ZM777.863 17.5023C779.719 19.1759 781.353 20.9912 782.776 22.9481L784.394 21.7717C782.887 19.7006 781.159 17.7822 779.203 16.0172L777.863 17.5023ZM786.449 29.3002C787.431 31.4847 788.225 33.8089 788.838 36.2744L790.779 35.7922C790.14 33.2193 789.308 30.7812 788.273 28.4801L786.449 29.3002ZM790.085 43.5724C790.209 44.7843 790.297 46.0242 790.352 47.292L792.35 47.2061C792.294 45.9013 792.203 44.6226 792.075 43.3701L790.085 43.5724Z" fill="#B4AEA5"/>
</svg>
