<svg width="41" height="96" viewBox="0 0 41 96" fill="none" xmlns="http://www.w3.org/2000/svg">
    <path d="M9.09766 7.24414C9.14453 7.20117 9.22266 7.14648 9.33203 7.08008C9.55078 6.94727 9.92773 6.68164 10.4629 6.2832L12.0684 4.9707C12.5098 4.60352 12.8203 4.31445 13 4.10352C13.0352 4.05664 13.0625 4.00781 13.082 3.95703C13.0117 3.90625 12.9316 3.86914 12.8418 3.8457C12.752 3.82227 12.6094 3.80469 12.4141 3.79297C12.2188 3.78125 12.1016 3.76367 12.0625 3.74023C12.0273 3.71289 12.0098 3.67969 12.0098 3.64062C12.0098 3.59766 12.0234 3.56445 12.0508 3.54102C12.1016 3.50586 12.1738 3.48828 12.2676 3.48828C12.416 3.48828 12.5449 3.5 12.6543 3.52344C12.7637 3.54297 13.0117 3.55273 13.3984 3.55273C13.4922 3.55273 13.5605 3.55078 13.6035 3.54688L14.5176 3.5C14.6113 3.49219 14.6836 3.48828 14.7344 3.48828C14.7812 3.48828 14.8516 3.49219 14.9453 3.5C14.9453 3.59375 14.9375 3.66992 14.9219 3.72852C14.5 3.7793 14.1895 3.84375 13.9902 3.92188C13.877 3.96875 13.6465 4.09766 13.2988 4.30859C13.0371 4.46875 12.7988 4.64062 12.584 4.82422L11.0723 6.0957L10.1582 6.83398C10.1738 6.86133 10.1973 6.88867 10.2285 6.91602C10.252 6.93555 10.3105 6.99023 10.4043 7.08008C10.8145 7.46289 11.3672 7.93359 12.0625 8.49219C12.7617 9.04688 13.3086 9.51172 13.7031 9.88672C14.2812 10.4414 14.8262 10.748 15.3379 10.8066C15.4629 10.8223 15.5527 10.8574 15.6074 10.9121L15.6133 10.9766L15.6016 11.0586C15.4688 11.0664 15.3789 11.0703 15.332 11.0703C15.1523 11.0703 14.8809 11.0566 14.5176 11.0293C14.3027 11.0137 14.125 11.0059 13.9844 11.0059C13.4219 11.0059 12.7793 11.0293 12.0566 11.0762C12.0449 11.0215 12.0391 10.9805 12.0391 10.9531L12.0449 10.9062C12.0957 10.8594 12.1973 10.8164 12.3496 10.7773C12.5605 10.7227 12.7832 10.6914 13.0176 10.6836C13.0684 10.6836 13.123 10.6797 13.1816 10.6719C13.1426 10.6094 13.0781 10.5371 12.9883 10.4551C12.9727 10.4395 12.9199 10.3887 12.8301 10.3027C12.7402 10.2129 12.582 10.0684 12.3555 9.86914L11.6582 9.3125L10.5859 8.41016C10.2305 8.10547 9.73438 7.7168 9.09766 7.24414ZM6.83594 10.9238C6.85547 10.8848 6.88477 10.8633 6.92383 10.8594C7.31836 10.8242 7.62891 10.7539 7.85547 10.6484C7.93359 10.5781 7.97266 10.4609 7.97266 10.2969L7.9668 9.72266V8.63281L7.97852 8.1582L7.94336 6.5293L7.95508 5.43359C7.95508 4.81641 7.94336 4.4043 7.91992 4.19727C7.91211 4.11914 7.88672 4.03906 7.84375 3.95703C7.77344 3.91406 7.71484 3.88867 7.66797 3.88086C7.5 3.85352 7.2832 3.83203 7.01758 3.81641C6.96289 3.77734 6.93555 3.73047 6.93555 3.67578C6.93555 3.65625 6.94336 3.62695 6.95898 3.58789C7.17773 3.57617 7.56445 3.57031 8.11914 3.57031C8.37695 3.57031 8.58008 3.56836 8.72852 3.56445C8.93945 3.55273 9.19336 3.53516 9.49023 3.51172C9.61914 3.52344 9.77148 3.5293 9.94727 3.5293C9.99023 3.55273 10.0117 3.58008 10.0117 3.61133C10.0117 3.63477 10.0078 3.66016 10 3.6875C9.95312 3.71094 9.86523 3.73047 9.73633 3.74609C9.39648 3.78125 9.16602 3.85547 9.04492 3.96875C8.96289 4.04688 8.92188 4.19531 8.92188 4.41406L8.92773 4.52539L8.91602 6.72852L8.89844 8.24609L8.93945 9.75195C8.94336 10.2285 8.95508 10.4922 8.97461 10.543C8.99414 10.5898 9.02539 10.627 9.06836 10.6543C9.20508 10.7363 9.41406 10.791 9.69531 10.8184C9.76562 10.8262 9.83398 10.8398 9.90039 10.8594C9.92383 10.9102 9.93555 10.9531 9.93555 10.9883C9.93555 11.0273 9.91211 11.0645 9.86523 11.0996L9.67773 11.1055C9.59961 11.1055 9.41211 11.0918 9.11523 11.0645C8.81836 11.0371 8.59766 11.0234 8.45312 11.0234C8.33203 11.0234 8.16406 11.0371 7.94922 11.0645C7.73438 11.0918 7.44141 11.1055 7.07031 11.1055C7.01562 11.1055 6.94141 11.1035 6.84766 11.0996L6.83594 10.9238ZM19.8555 7.90625L17.5059 7.92383H17.0605C16.8809 7.92383 16.6973 7.93164 16.5098 7.94727C16.4746 8.06445 16.457 8.14453 16.457 8.1875L16.4629 8.24609V8.30469L16.457 8.5918C16.457 8.83008 16.5312 9.12305 16.6797 9.4707C16.832 9.81445 17.0469 10.0781 17.3242 10.2617C17.6055 10.4414 17.9551 10.5371 18.373 10.5488C18.5957 10.5371 18.7734 10.5098 18.9062 10.4668C19.0391 10.4238 19.2266 10.3242 19.4688 10.168L19.8906 9.82227L19.9258 10.0566C19.9258 10.084 19.9238 10.1133 19.9199 10.1445C19.7441 10.3672 19.5215 10.5625 19.252 10.7305C18.9824 10.8984 18.709 11.0215 18.4316 11.0996C18.2988 11.1348 18.0801 11.1523 17.7754 11.1523C17.498 11.1523 17.2246 11.0957 16.9551 10.9824C16.5566 10.8105 16.2422 10.5352 16.0117 10.1562C15.7852 9.77344 15.6719 9.31055 15.6719 8.76758C15.6719 8.5957 15.7031 8.375 15.7656 8.10547C15.832 7.83594 15.9492 7.54883 16.1172 7.24414C16.2305 7.03711 16.3691 6.86719 16.5332 6.73438C16.7676 6.54688 16.9727 6.41602 17.1484 6.3418C17.4023 6.23633 17.6973 6.18359 18.0332 6.18359C18.3965 6.18359 18.6934 6.25 18.9238 6.38281C19.2363 6.55859 19.4688 6.78516 19.6211 7.0625C19.7773 7.33984 19.8555 7.59375 19.8555 7.82422V7.90625ZM16.5859 7.69531H16.8613C17.0605 7.69531 17.6543 7.66406 18.6426 7.60156C18.7988 7.59375 18.8945 7.57812 18.9297 7.55469C19 7.48047 19.0352 7.41406 19.0352 7.35547C19.0352 7.23438 18.9961 7.09766 18.918 6.94531C18.8398 6.78906 18.7188 6.66992 18.5547 6.58789C18.3945 6.50195 18.207 6.45898 17.9922 6.45898C17.5391 6.45898 17.1758 6.62891 16.9023 6.96875C16.6914 7.22656 16.5859 7.46875 16.5859 7.69531ZM24.8594 7.90625L22.5098 7.92383H22.0645C21.8848 7.92383 21.7012 7.93164 21.5137 7.94727C21.4785 8.06445 21.4609 8.14453 21.4609 8.1875L21.4668 8.24609V8.30469L21.4609 8.5918C21.4609 8.83008 21.5352 9.12305 21.6836 9.4707C21.8359 9.81445 22.0508 10.0781 22.3281 10.2617C22.6094 10.4414 22.959 10.5371 23.377 10.5488C23.5996 10.5371 23.7773 10.5098 23.9102 10.4668C24.043 10.4238 24.2305 10.3242 24.4727 10.168L24.8945 9.82227L24.9297 10.0566C24.9297 10.084 24.9277 10.1133 24.9238 10.1445C24.748 10.3672 24.5254 10.5625 24.2559 10.7305C23.9863 10.8984 23.7129 11.0215 23.4355 11.0996C23.3027 11.1348 23.084 11.1523 22.7793 11.1523C22.502 11.1523 22.2285 11.0957 21.959 10.9824C21.5605 10.8105 21.2461 10.5352 21.0156 10.1562C20.7891 9.77344 20.6758 9.31055 20.6758 8.76758C20.6758 8.5957 20.707 8.375 20.7695 8.10547C20.8359 7.83594 20.9531 7.54883 21.1211 7.24414C21.2344 7.03711 21.373 6.86719 21.5371 6.73438C21.7715 6.54688 21.9766 6.41602 22.1523 6.3418C22.4062 6.23633 22.7012 6.18359 23.0371 6.18359C23.4004 6.18359 23.6973 6.25 23.9277 6.38281C24.2402 6.55859 24.4727 6.78516 24.625 7.0625C24.7812 7.33984 24.8594 7.59375 24.8594 7.82422V7.90625ZM21.5898 7.69531H21.8652C22.0645 7.69531 22.6582 7.66406 23.6465 7.60156C23.8027 7.59375 23.8984 7.57812 23.9336 7.55469C24.0039 7.48047 24.0391 7.41406 24.0391 7.35547C24.0391 7.23438 24 7.09766 23.9219 6.94531C23.8438 6.78906 23.7227 6.66992 23.5586 6.58789C23.3984 6.50195 23.2109 6.45898 22.9961 6.45898C22.543 6.45898 22.1797 6.62891 21.9062 6.96875C21.6953 7.22656 21.5898 7.46875 21.5898 7.69531ZM25.5215 14.0586C25.5176 14.0156 25.5156 13.9766 25.5156 13.9414C25.5156 13.9141 25.5195 13.8809 25.5273 13.8418L26.1133 13.7246C26.207 13.6777 26.2832 13.6211 26.3418 13.5547C26.3613 13.4844 26.3711 13.4141 26.3711 13.3438C26.3711 12.7422 26.3555 11.5957 26.3242 9.9043L26.3066 7.75977C26.2988 7.41992 26.2773 7.20508 26.2422 7.11523C26.2227 7.06836 26.1934 7.03125 26.1543 7.00391C26.0566 6.92969 25.8613 6.86719 25.5684 6.81641L25.6035 6.64062C26.0254 6.46094 26.3066 6.32227 26.4473 6.22461C26.5918 6.12305 26.7285 5.98242 26.8574 5.80273L26.9277 5.78516C26.9551 5.78516 26.9941 5.79688 27.0449 5.82031C27.041 6.06641 27.0391 6.22852 27.0391 6.30664L27.0449 6.95117C27.334 6.73242 27.6348 6.57031 27.9473 6.46484C28.2598 6.35547 28.584 6.30078 28.9199 6.30078C29.5215 6.30078 30.0293 6.51367 30.4434 6.93945C30.8574 7.36133 31.0645 7.90625 31.0645 8.57422C31.0645 9.07031 30.9473 9.51562 30.7129 9.91016C30.4824 10.3047 30.1621 10.5996 29.752 10.7949C29.3457 10.9902 28.9355 11.0879 28.5215 11.0879C28.1699 11.0879 27.7676 10.9922 27.3145 10.8008C27.2402 10.7695 27.1738 10.7422 27.1152 10.7188C27.1074 11.0312 27.1035 11.3086 27.1035 11.5508C27.1035 12.7578 27.1367 13.4336 27.2031 13.5781C27.2383 13.6562 27.3477 13.7031 27.5312 13.7188C27.8438 13.7422 28.0508 13.7871 28.1523 13.8535C28.2109 13.8887 28.25 13.959 28.2695 14.0645L27.6895 14.0762L27.1621 14.0645L26.2832 14.0703L25.5215 14.0586ZM27.0508 7.35547C27.043 7.41016 27.0391 7.46094 27.0391 7.50781C27.0391 8.90234 27.0527 9.68359 27.0801 9.85156C27.1348 10.1602 27.2441 10.377 27.4082 10.502C27.6621 10.7012 28.0254 10.8008 28.498 10.8008C28.9863 10.8008 29.3984 10.6328 29.7344 10.2969C30.0703 9.95703 30.2383 9.51758 30.2383 8.97852C30.2383 8.33008 30.0605 7.81641 29.7051 7.4375C29.3496 7.05859 28.8809 6.86914 28.2988 6.86914C28.0527 6.86914 27.8262 6.91016 27.6191 6.99219C27.4121 7.07031 27.2227 7.19141 27.0508 7.35547ZM4.82617 17.7695C4.85742 18.0273 4.87305 18.1758 4.87305 18.2148L4.84961 18.7363C4.8418 18.959 4.83203 19.1016 4.82031 19.1641C4.78516 19.1797 4.75586 19.1875 4.73242 19.1875L4.67969 19.1758C4.55469 18.6289 4.3418 18.2305 4.04102 17.9805C3.74414 17.7305 3.38086 17.6055 2.95117 17.6055C2.50586 17.6055 2.14062 17.7305 1.85547 17.9805C1.57031 18.2305 1.42773 18.5215 1.42773 18.8535C1.42773 19.1074 1.52734 19.3398 1.72656 19.5508C1.92578 19.7617 2.43555 20.0781 3.25586 20.5C3.88086 20.8242 4.32812 21.0898 4.59766 21.2969C4.86719 21.5 5.07031 21.7363 5.20703 22.0059C5.34375 22.2754 5.41211 22.5762 5.41211 22.9082C5.41211 23.3262 5.30273 23.7188 5.08398 24.0859C4.86914 24.4531 4.57812 24.7305 4.21094 24.918C3.84375 25.1016 3.35742 25.1934 2.75195 25.1934C2.22461 25.1934 1.71875 25.1094 1.23438 24.9414C0.949219 24.8398 0.775391 24.7578 0.712891 24.6953C0.650391 24.6328 0.619141 24.5664 0.619141 24.4961C0.619141 24.4531 0.623047 24.3984 0.630859 24.332C0.685547 23.8711 0.714844 23.4922 0.71875 23.1953C0.726562 23.0117 0.740234 22.9043 0.759766 22.873C0.775391 22.8457 0.804688 22.832 0.847656 22.832C0.882812 22.832 0.910156 22.8457 0.929688 22.873C0.953125 22.8965 0.96875 22.9434 0.976562 23.0137C1.01953 23.4941 1.24219 23.9238 1.64453 24.3027C2.04297 24.6816 2.49414 24.8711 2.99805 24.8711C3.30664 24.8711 3.58984 24.8066 3.84766 24.6777C4.10938 24.5488 4.3125 24.3633 4.45703 24.1211C4.60547 23.875 4.67969 23.6367 4.67969 23.4062C4.67969 23.0898 4.56836 22.8008 4.3457 22.5391C4.12305 22.2773 3.67578 21.9727 3.00391 21.625C2.33203 21.2734 1.89453 21.0176 1.69141 20.8574C1.36328 20.5957 1.11719 20.3184 0.953125 20.0254C0.832031 19.7988 0.771484 19.5352 0.771484 19.2344C0.771484 18.6914 0.986328 18.2324 1.41602 17.8574C1.8457 17.4785 2.42188 17.2891 3.14453 17.2891C3.54297 17.2891 3.88672 17.334 4.17578 17.4238C4.38672 17.4941 4.60352 17.6094 4.82617 17.7695ZM10.6035 23.9277L10.6094 24.3086C10.3047 24.6328 10.0039 24.8594 9.70703 24.9883C9.41016 25.1172 9.06055 25.1816 8.6582 25.1816C8.2207 25.1816 7.82617 25.0684 7.47461 24.8418C7.12305 24.6113 6.85156 24.2871 6.66016 23.8691C6.47266 23.4512 6.37891 23.041 6.37891 22.6387C6.37891 22.1973 6.49219 21.7812 6.71875 21.3906C6.94922 20.9961 7.25195 20.7031 7.62695 20.5117C8.00586 20.3164 8.48047 20.2188 9.05078 20.2188C9.59766 20.2188 10.0137 20.3125 10.2988 20.5C10.459 20.6094 10.5391 20.75 10.5391 20.9219C10.5391 21.0469 10.498 21.1504 10.416 21.2324C10.334 21.3145 10.2285 21.3555 10.0996 21.3555C9.9043 21.3555 9.68945 21.2344 9.45508 20.9922C9.31055 20.8438 9.17969 20.7422 9.0625 20.6875C8.94531 20.6289 8.81445 20.5996 8.66992 20.5996C8.32227 20.5996 8.0332 20.7422 7.80273 21.0273C7.48242 21.4336 7.32227 21.9434 7.32227 22.5566C7.32227 23.1895 7.48633 23.6934 7.81445 24.0684C8.14258 24.4434 8.52539 24.6309 8.96289 24.6309C9.26758 24.6309 9.53711 24.582 9.77148 24.4844C10.0098 24.3828 10.2871 24.1973 10.6035 23.9277ZM11.166 25.0176L11.1426 24.9414C11.1426 24.9141 11.1602 24.873 11.1953 24.8184L11.541 24.748L12.0273 24.6602C12.0664 24.6406 12.0938 24.6133 12.1094 24.5781C12.1328 24.5273 12.1445 24.377 12.1445 24.127C12.1445 22.7988 12.1367 22.0332 12.1211 21.8301C12.1055 21.623 12.0703 21.4922 12.0156 21.4375C11.9609 21.3828 11.8203 21.3398 11.5938 21.3086C11.4609 21.2891 11.3555 21.2637 11.2773 21.2324L11.3008 21.0566C11.7109 20.8887 11.9863 20.7441 12.127 20.623C12.3223 20.4473 12.4883 20.2168 12.625 19.9316L12.8242 19.9375C12.8477 20.1328 12.8594 20.5664 12.8594 21.2383L12.8535 21.3379C12.8535 21.3613 12.8574 21.3984 12.8652 21.4492C13.0137 21.1797 13.1992 20.9316 13.4219 20.7051L13.5566 20.5703C13.6113 20.5078 13.6641 20.459 13.7148 20.4238C13.9883 20.2598 14.1914 20.1777 14.3242 20.1777C14.4961 20.1777 14.6367 20.2363 14.7461 20.3535C14.8555 20.4668 14.9102 20.6074 14.9102 20.7754C14.9102 20.9082 14.8711 21.0117 14.793 21.0859C14.6875 21.1836 14.5664 21.2324 14.4297 21.2324C14.3672 21.2324 14.2441 21.1992 14.0605 21.1328C13.877 21.0664 13.7559 21.0332 13.6973 21.0332C13.5879 21.0332 13.5117 21.0508 13.4688 21.0859C13.3594 21.1719 13.2266 21.3477 13.0703 21.6133C12.9492 21.8125 12.8887 21.9961 12.8887 22.1641L12.918 23.1309L12.9297 24.291C12.9414 24.4238 12.957 24.5098 12.9766 24.5488C12.9922 24.5762 13.0312 24.6094 13.0938 24.6484C13.5156 24.6836 13.7656 24.709 13.8438 24.7246C13.8984 24.7285 13.9395 24.7324 13.9668 24.7363C14.1348 24.7402 14.252 24.7637 14.3184 24.8066C14.3535 24.8262 14.3711 24.8555 14.3711 24.8945C14.3711 24.918 14.3555 24.9492 14.3242 24.9883L13.6738 24.9824L13.4277 24.9766L13.0703 24.9824H12.4727L12.1504 25L11.166 25.0176ZM15.3613 22.6445C15.3613 22.3789 15.416 22.0957 15.5254 21.7949C15.6387 21.4902 15.8086 21.2188 16.0352 20.9805C16.2617 20.7383 16.502 20.5586 16.7559 20.4414C17.1113 20.2773 17.5449 20.1953 18.0566 20.1953C18.7871 20.1953 19.3965 20.4453 19.8848 20.9453C20.377 21.4453 20.623 22.0469 20.623 22.75C20.623 23.375 20.3652 23.9336 19.8496 24.4258C19.3379 24.9141 18.6895 25.1582 17.9043 25.1582C17.4199 25.1582 16.9629 25.0312 16.5332 24.7773C16.2129 24.5859 15.9375 24.3027 15.707 23.9277C15.4766 23.5527 15.3613 23.125 15.3613 22.6445ZM17.9512 24.9297C18.248 24.9297 18.5332 24.8496 18.8066 24.6895C19.084 24.5293 19.3047 24.2734 19.4688 23.9219C19.6328 23.5664 19.7148 23.1562 19.7148 22.6914C19.7148 22.3867 19.6504 22.0332 19.5215 21.6309C19.3965 21.2285 19.2012 20.9277 18.9355 20.7285C18.6738 20.5254 18.3652 20.4238 18.0098 20.4238C17.752 20.4238 17.4883 20.4844 17.2188 20.6055C16.9531 20.7266 16.7266 20.959 16.5391 21.3027C16.3555 21.6465 16.2637 22.1348 16.2637 22.7676C16.2637 23.4785 16.4238 24.0176 16.7441 24.3848C17.0684 24.748 17.4707 24.9297 17.9512 24.9297ZM21.3672 17.7402V17.6113C21.4766 17.5762 21.5977 17.5391 21.7305 17.5C21.9258 17.4375 22.2148 17.3418 22.5977 17.2129H22.873C22.877 17.4004 22.8789 17.5078 22.8789 17.5352C22.8789 20.7422 22.8691 22.6543 22.8496 23.2715C22.8379 23.6348 22.832 23.8281 22.832 23.8516C22.832 24.2891 22.8496 24.5332 22.8848 24.584C22.9316 24.6543 23.0742 24.7031 23.3125 24.7305C23.5547 24.7578 23.6973 24.7852 23.7402 24.8125C23.7715 24.8281 23.7871 24.8555 23.7871 24.8945C23.7871 24.9375 23.7773 24.9688 23.7578 24.9883C23.7422 25.0039 23.7109 25.0117 23.6641 25.0117C23.6367 25.0117 23.4316 25.0059 23.0488 24.9941L22.2812 24.9707L21.2969 25.0117C21.2344 25.0156 21.1875 25.0039 21.1562 24.9766C21.1328 24.957 21.1211 24.9297 21.1211 24.8945C21.1211 24.8555 21.1328 24.8281 21.1562 24.8125C21.1836 24.793 21.3242 24.7617 21.5781 24.7188C21.8359 24.6758 21.9824 24.6406 22.0176 24.6133C22.0566 24.582 22.082 24.5156 22.0938 24.4141C22.1094 24.2734 22.1172 23.877 22.1172 23.2246L22.1113 21.877L22.1289 20.4824L22.123 19.0879L22.1406 18.4023C22.1406 18.2656 22.1191 18.168 22.0762 18.1094C22.0332 18.0469 21.9414 17.9863 21.8008 17.9277C21.5898 17.8418 21.4453 17.7793 21.3672 17.7402ZM24.1211 17.7402V17.6113C24.2305 17.5762 24.3516 17.5391 24.4844 17.5C24.6797 17.4375 24.9688 17.3418 25.3516 17.2129H25.627C25.6309 17.4004 25.6328 17.5078 25.6328 17.5352C25.6328 20.7422 25.623 22.6543 25.6035 23.2715C25.5918 23.6348 25.5859 23.8281 25.5859 23.8516C25.5859 24.2891 25.6035 24.5332 25.6387 24.584C25.6855 24.6543 25.8281 24.7031 26.0664 24.7305C26.3086 24.7578 26.4512 24.7852 26.4941 24.8125C26.5254 24.8281 26.541 24.8555 26.541 24.8945C26.541 24.9375 26.5312 24.9688 26.5117 24.9883C26.4961 25.0039 26.4648 25.0117 26.418 25.0117C26.3906 25.0117 26.1855 25.0059 25.8027 24.9941L25.0352 24.9707L24.0508 25.0117C23.9883 25.0156 23.9414 25.0039 23.9102 24.9766C23.8867 24.957 23.875 24.9297 23.875 24.8945C23.875 24.8555 23.8867 24.8281 23.9102 24.8125C23.9375 24.793 24.0781 24.7617 24.332 24.7188C24.5898 24.6758 24.7363 24.6406 24.7715 24.6133C24.8105 24.582 24.8359 24.5156 24.8477 24.4141C24.8633 24.2734 24.8711 23.877 24.8711 23.2246L24.8652 21.877L24.8828 20.4824L24.877 19.0879L24.8945 18.4023C24.8945 18.2656 24.873 18.168 24.8301 18.1094C24.7871 18.0469 24.6953 17.9863 24.5547 17.9277C24.3438 17.8418 24.1992 17.7793 24.1211 17.7402ZM27.4023 17.7988C27.4023 17.6699 27.4512 17.5586 27.5488 17.4648C27.6504 17.3711 27.7715 17.3242 27.9121 17.3242C28.0566 17.3242 28.1836 17.377 28.293 17.4824C28.4023 17.5879 28.457 17.7012 28.457 17.8223C28.457 17.9434 28.4023 18.0586 28.293 18.168C28.1836 18.2734 28.0566 18.3262 27.9121 18.3262C27.7676 18.3262 27.6465 18.2773 27.5488 18.1797C27.4512 18.082 27.4023 17.9551 27.4023 17.7988ZM26.9102 20.834L26.916 20.6641C27.1699 20.5898 27.3066 20.5469 27.3262 20.5352C27.4668 20.4727 27.6133 20.377 27.7656 20.248C27.9219 20.1191 28.0527 19.9746 28.1582 19.8145C28.2051 19.8066 28.2422 19.8027 28.2695 19.8027L28.3398 19.8086C28.3555 19.9961 28.3633 20.1328 28.3633 20.2188C28.3633 20.2383 28.3594 20.3262 28.3516 20.4824V20.793L28.3574 22.4805L28.3398 24.2676C28.3359 24.4121 28.3594 24.5137 28.4102 24.5723C28.4609 24.627 28.6113 24.6895 28.8613 24.7598C29.0176 24.8027 29.1348 24.8398 29.2129 24.8711C29.2246 24.8984 29.2305 24.9219 29.2305 24.9414C29.2305 24.9648 29.2207 24.9941 29.2012 25.0293C29.0488 25.0254 28.8535 25.0156 28.6152 25C28.291 24.9727 28.0762 24.959 27.9707 24.959C27.9199 24.959 27.6074 24.9688 27.0332 24.9883C26.916 24.9922 26.8027 25.002 26.6934 25.0176C26.6738 25.0176 26.6426 25.0117 26.5996 25C26.5801 24.9727 26.5703 24.9492 26.5703 24.9297C26.5703 24.875 26.6074 24.832 26.6816 24.8008C26.6973 24.793 26.8965 24.748 27.2793 24.666C27.4043 24.6426 27.4863 24.6035 27.5254 24.5488C27.5918 24.4668 27.625 24.3359 27.625 24.1562C27.6328 23.8555 27.6367 23.0312 27.6367 21.6836C27.6367 21.4141 27.625 21.2461 27.6016 21.1797C27.582 21.1328 27.5293 21.0801 27.4434 21.0215C27.3613 20.959 27.1836 20.8965 26.9102 20.834ZM29.5469 24.8125C29.6445 24.7852 29.7578 24.7617 29.8867 24.7422C30.1328 24.707 30.2793 24.666 30.3262 24.6191C30.377 24.5723 30.4023 24.4648 30.4023 24.2969L30.4141 24.0859C30.418 24.0078 30.4199 23.9082 30.4199 23.7871L30.4082 21.9883C30.4082 21.7461 30.377 21.5898 30.3145 21.5195C30.209 21.4102 30.0137 21.334 29.7285 21.291V21.0801C30.0137 21.002 30.2324 20.9004 30.3848 20.7754C30.6074 20.5996 30.7949 20.3613 30.9473 20.0605L31.1465 20.0664C31.1582 20.25 31.1641 20.3809 31.1641 20.459V20.8457L31.1699 20.9512C31.2168 20.9199 31.2715 20.8809 31.334 20.834C31.5684 20.6582 31.8086 20.5156 32.0547 20.4062C32.3008 20.293 32.5195 20.2148 32.7109 20.1719C32.832 20.1406 32.9688 20.125 33.1211 20.125C33.4414 20.125 33.7168 20.2109 33.9473 20.3828C34.1777 20.5547 34.3262 20.7578 34.3926 20.9922C34.4629 21.2227 34.498 21.6836 34.498 22.375V23.2598C34.498 23.2832 34.4941 23.3613 34.4863 23.4941C34.4824 23.627 34.4805 23.7793 34.4805 23.9512C34.4805 24.2246 34.4922 24.3984 34.5156 24.4727C34.5352 24.5234 34.5859 24.5742 34.668 24.625C35.043 24.6758 35.2617 24.7363 35.3242 24.8066V24.8535C35.3242 24.8926 35.3125 24.9414 35.2891 25H35.1777L34.4043 24.9941L33.6426 25.0059C33.3613 25.0137 33.1016 25.0117 32.8633 25L32.8281 24.877C32.8281 24.8535 32.8418 24.8223 32.8691 24.7832C32.9746 24.7363 33.123 24.7051 33.3145 24.6895C33.4277 24.6816 33.5059 24.6699 33.5488 24.6543C33.5918 24.6387 33.6445 24.6074 33.707 24.5605C33.7539 24.4668 33.7773 24.3887 33.7773 24.3262C33.7773 24.2988 33.7734 24.2441 33.7656 24.1621C33.7539 23.9824 33.7461 23.5352 33.7422 22.8203V22.5156L33.7539 22.0469C33.7539 21.543 33.6523 21.1953 33.4492 21.0039C33.2461 20.8125 32.9746 20.7168 32.6348 20.7168C32.373 20.7168 32.1172 20.7754 31.8672 20.8926C31.6172 21.0059 31.375 21.1777 31.1406 21.4082C31.1328 21.5957 31.1289 21.7559 31.1289 21.8887L31.1465 23.1836C31.1465 23.8594 31.1562 24.2734 31.1758 24.4258C31.1836 24.4883 31.1973 24.5312 31.2168 24.5547C31.248 24.5859 31.3105 24.6113 31.4043 24.6309C31.498 24.6504 31.6055 24.6777 31.7266 24.7129C31.8516 24.748 31.9336 24.7695 31.9727 24.7773C32.0508 24.7969 32.1035 24.8359 32.1309 24.8945L32.125 25.0117H31.5098L30.2441 24.9941C29.9512 25.002 29.7656 25.0059 29.6875 25.0059H29.541L29.5293 24.9297C29.5293 24.9023 29.5352 24.8633 29.5469 24.8125ZM37.0352 25.3867C36.9883 25.3633 36.8379 25.2988 36.584 25.1934C36.2871 25.002 36.0996 24.8594 36.0215 24.7656C35.9434 24.6719 35.9043 24.5684 35.9043 24.4551C35.9043 24.3535 35.9336 24.2715 35.9922 24.209C36.0781 24.1191 36.248 24.0332 36.502 23.9512C36.7559 23.8691 36.9648 23.7891 37.1289 23.7109C37.0781 23.6758 36.998 23.625 36.8887 23.5586C36.3066 23.1992 36.0156 22.7012 36.0156 22.0645C36.0156 21.541 36.1992 21.0996 36.5664 20.7402C36.9375 20.377 37.4121 20.1953 37.9902 20.1953C38.252 20.1953 38.4922 20.2324 38.7109 20.3066C38.8359 20.3457 39.0215 20.4434 39.2676 20.5996C39.4238 20.6973 39.5156 20.752 39.543 20.7637C39.6055 20.7832 39.6758 20.793 39.7539 20.793C39.8203 20.793 39.9805 20.7773 40.2344 20.7461C40.4922 20.7109 40.6445 20.6934 40.6914 20.6934C40.7812 20.6934 40.8555 20.7109 40.9141 20.7461C40.9609 20.8242 40.9844 20.9551 40.9844 21.1387C40.9844 21.2012 40.9668 21.248 40.9316 21.2793C40.9004 21.3105 40.8535 21.3262 40.791 21.3262C40.6816 21.3262 40.5 21.293 40.2461 21.2266C39.9961 21.1562 39.8438 21.1211 39.7891 21.1211C39.7695 21.1211 39.7324 21.125 39.6777 21.1328C39.8457 21.4688 39.9297 21.7754 39.9297 22.0527C39.9297 22.3301 39.8418 22.6172 39.666 22.9141C39.4902 23.2109 39.248 23.4375 38.9395 23.5938C38.6309 23.75 38.3184 23.8281 38.002 23.8281C37.9785 23.8281 37.9121 23.8262 37.8027 23.8223C37.4434 23.8223 37.1133 23.9121 36.8125 24.0918C36.668 24.1816 36.5957 24.2656 36.5957 24.3438C36.5957 24.4258 36.666 24.5059 36.8066 24.584C37.1777 24.7832 37.8809 24.8984 38.916 24.9297C39.3652 24.9453 39.7148 25.0098 39.9648 25.123C40.2148 25.2363 40.4023 25.4023 40.5273 25.6211C40.6562 25.8438 40.7207 26.0723 40.7207 26.3066C40.7207 26.623 40.6133 26.916 40.3984 27.1855C40.1836 27.4551 39.8574 27.6738 39.4199 27.8418C38.9824 28.0098 38.4805 28.0938 37.9141 28.0938C37.2891 28.0938 36.8066 28.0176 36.4668 27.8652C36.127 27.7129 35.8848 27.5469 35.7402 27.3672C35.5996 27.1875 35.5293 27.0098 35.5293 26.834C35.5293 26.6816 35.6074 26.4902 35.7637 26.2598C35.9199 26.0332 36.2441 25.7949 36.7363 25.5449C36.8809 25.4707 36.9805 25.418 37.0352 25.3867ZM36.8008 22.041C36.8008 22.3926 36.8535 22.6875 36.959 22.9258C37.0645 23.1602 37.209 23.3359 37.3926 23.4531C37.5762 23.5664 37.7617 23.623 37.9492 23.623C38.2891 23.623 38.5703 23.4941 38.793 23.2363C39.0195 22.9746 39.1328 22.5781 39.1328 22.0469C39.1328 21.5117 39.0156 21.1055 38.7812 20.8281C38.5469 20.5469 38.2637 20.4062 37.9316 20.4062C37.5605 20.4062 37.2793 20.5391 37.0879 20.8047C36.8965 21.0703 36.8008 21.4824 36.8008 22.041ZM36.6074 27.4668C36.9629 27.7402 37.4121 27.877 37.9551 27.877C38.3418 27.877 38.7266 27.8145 39.1094 27.6895C39.4961 27.5684 39.7773 27.3926 39.9531 27.1621C40.1328 26.9355 40.2227 26.7207 40.2227 26.5176C40.2227 26.3926 40.1914 26.2676 40.1289 26.1426C40.0664 26.0215 39.9805 25.9199 39.8711 25.8379C39.7656 25.7598 39.625 25.6973 39.4492 25.6504C39.3242 25.6152 39.1465 25.5898 38.916 25.5742C38.2598 25.5234 37.8574 25.498 37.709 25.498C37.291 25.498 36.918 25.6387 36.5898 25.9199C36.3359 26.1387 36.209 26.4004 36.209 26.7051C36.209 26.9863 36.3418 27.2402 36.6074 27.4668Z" fill="black"/>
    <rect x="0.75" y="-0.75" width="38.5" height="58.5" rx="19.25" transform="matrix(1 0 0 -1 0.5 94.5)" stroke="#91959C" stroke-width="1.5"/>
    <path d="M25.212 74.43L20.356 80.5L15.5 74.43" stroke="#91959C" stroke-width="2" stroke-miterlimit="10" stroke-linecap="round" stroke-linejoin="round"/>
    <path d="M20.5 60L20.5 80" stroke="#91959C" stroke-width="2" stroke-miterlimit="10" stroke-linecap="round" stroke-linejoin="round"/>
    </svg>
    