<svg width="30" height="25" viewBox="0 0 30 25" fill="none" xmlns="http://www.w3.org/2000/svg">
<path d="M29.5547 3.83381C28.468 4.30245 27.2855 4.63973 26.0675 4.77109C27.3321 4.01997 28.2791 2.83334 28.7308 1.43381C27.5441 2.13957 26.2442 2.63446 24.8885 2.89653C24.3219 2.29095 23.6366 1.80851 22.8754 1.47928C22.1141 1.15006 21.2932 0.981093 20.4638 0.982925C17.108 0.982925 14.4092 3.70245 14.4092 7.03973C14.4092 7.50836 14.466 7.977 14.5583 8.42789C9.53349 8.16517 5.05199 5.76517 2.07261 2.09062C1.52973 3.01765 1.24525 4.07319 1.24875 5.14742C1.24875 7.24919 2.31763 9.10245 3.94759 10.1924C2.98703 10.1546 2.04897 9.8906 1.20969 9.42197V9.49653C1.20969 12.4397 3.29064 14.8788 6.06406 15.4397C5.54332 15.575 5.00763 15.6441 4.46961 15.6456C4.07543 15.6456 3.70257 15.6066 3.32615 15.5533C4.09319 17.9533 6.32684 19.6965 8.98662 19.7533C6.90567 21.3829 4.29915 22.3415 1.46892 22.3415C0.961109 22.3415 0.492362 22.3237 0.00585938 22.2669C2.6905 23.9888 5.87585 24.9829 9.30622 24.9829C20.4425 24.9829 26.5362 15.7592 26.5362 7.75333C26.5362 7.49061 26.5362 7.22789 26.5185 6.96517C27.6974 6.10245 28.7308 5.03381 29.5547 3.83381Z" fill="#0F1827"/>
</svg>
